<?xml version="1.0" standalone="no"?>
<!DOCTYPE svg PUBLIC "-//W3C//DTD SVG 20010904//EN"
 "http://www.w3.org/TR/2001/REC-SVG-20010904/DTD/svg10.dtd">
<svg version="1.0" xmlns="http://www.w3.org/2000/svg"
 width="1189.000000pt" height="1189.000000pt" viewBox="0 0 1189.000000 1189.000000"
 preserveAspectRatio="xMidYMid meet">
<metadata>
Created by potrace 1.14, written by Peter Selinger 2001-2017
</metadata>
<g transform="translate(0.000000,1189.000000) scale(0.100000,-0.100000)"
fill="#000000" stroke="none">
<path d="M260 11783 c0 -3 193 -522 430 -1153 l430 -1147 0 -3429 0 -3430
-470 -1031 c-259 -567 -470 -1034 -470 -1037 0 -3 812 -6 1805 -6 l1805 0 2
2131 3 2132 732 -1649 732 -1649 718 -3 719 -2 734 1656 735 1656 3 -2136 2
-2136 1831 0 c1006 0 1828 3 1826 8 -2 4 -225 468 -495 1032 l-492 1026 0
3446 0 3447 420 1132 c231 623 420 1136 420 1141 0 4 -761 7 -1692 6 l-1692
-3 -1156 -2670 c-636 -1468 -1160 -2668 -1166 -2666 -5 3 -528 1205 -1163
2673 l-1155 2668 -1698 0 c-934 0 -1698 -3 -1698 -7z m4469 -3126 c685 -1582
1248 -2874 1251 -2870 4 5 562 1291 1240 2858 678 1568 1237 2860 1243 2873
l10 22 1419 0 c862 0 1418 -4 1418 -9 0 -5 -164 -452 -365 -994 l-365 -984 0
-3497 0 -3498 396 -826 c218 -455 407 -848 420 -874 l24 -48 -1495 0 -1495 0
-2 2620 -3 2619 -659 -1487 c-363 -818 -790 -1781 -949 -2140 l-290 -652 -550
2 -550 3 -946 2132 -946 2131 -3 -2614 -2 -2614 -1475 0 -1475 0 14 33 c7 17
187 413 400 879 l386 846 0 3481 0 3481 -375 1000 c-206 550 -375 1002 -375
1005 0 3 642 4 1427 3 l1427 -3 1245 -2878z"/>
<path d="M936 11273 c14 -38 165 -439 335 -892 l309 -824 -2 -3521 -3 -3521
-343 -748 c-188 -411 -342 -750 -342 -752 0 -3 549 -5 1220 -5 l1220 0 0 2976
c0 1636 3 2973 8 2970 4 -2 504 -1125 1112 -2495 l1105 -2491 424 3 424 2
1106 2492 c608 1371 1109 2493 1113 2493 5 0 8 -1339 8 -2975 l0 -2975 1235 0
c679 0 1235 2 1235 5 0 2 -162 343 -360 756 l-360 750 0 3529 0 3529 325 877
c179 483 325 879 325 881 0 2 -547 2 -1216 1 l-1216 -3 -1294 -2990 c-711
-1644 -1301 -3006 -1310 -3025 l-17 -35 -21 46 c-12 25 -602 1387 -1311 3027
l-1290 2982 -1222 0 -1222 0 25 -67z"/>
</g>
</svg>
